<mxfile host="app.diagrams.net" modified="2024-07-17T22:56:04.133Z" agent="Mozilla/5.0 (Windows NT 10.0; Win64; x64) AppleWebKit/537.36 (KHTML, like Gecko) Chrome/126.0.0.0 Safari/537.36" version="24.6.5" etag="b-hXWRv7FeLToJQXrEDx" type="github">
  <diagram name="Halaman-1" id="R5bd97g-PbMEUZqTXhw2">
    <mxGraphModel>
      <root>
        <mxCell id="0" />
        <mxCell id="1" parent="0" />
      </root>
    </mxGraphModel>
  </diagram>
</mxfile>
